HIERARCHY
ROOT hip
{
  OFFSET 0 0 0
  CHANNELS 6 Xposition Yposition Zposition Zrotation Yrotation Xrotation
  JOINT abdomen
  {
    OFFSET 0 20.6881 -0.73152
    CHANNELS 3 Zrotation Xrotation Yrotation
    JOINT chest
    {
      OFFSET 0 11.7043 -0.48768
      CHANNELS 3 Zrotation Xrotation Yrotation
      JOINT neck
      {
        OFFSET 0 22.1894 -2.19456
        CHANNELS 3 Zrotation Xrotation Yrotation
        JOINT head
        {
          OFFSET -0.24384 7.07133 1.2192
          CHANNELS 3 Zrotation Xrotation Yrotation
          JOINT leftEye
          {
            OFFSET 4.14528 8.04674 8.04672
            CHANNELS 3 Zrotation Xrotation Yrotation
            End Site
            {
              OFFSET 1 0 0
            }
          }
          JOINT rightEye
          {
            OFFSET -3.6576 8.04674 8.04672
            CHANNELS 3 Zrotation Xrotation Yrotation
            End Site
            {
              OFFSET 1 0 0
            }
          }
        }
      }
      JOINT rCollar
      {
        OFFSET -2.68224 19.2634 -4.8768
        CHANNELS 3 Zrotation Xrotation Yrotation
        JOINT rShldr
        {
          OFFSET -8.77824 -1.95073 1.46304
          CHANNELS 3 Zrotation Xrotation Yrotation
          JOINT rForeArm
          {
            OFFSET -28.1742 -1.7115 0.48768
            CHANNELS 3 Zrotation Xrotation Yrotation
            JOINT rHand
            {
              OFFSET -22.5879 0.773209 7.07136
              CHANNELS 3 Zrotation Xrotation Yrotation
              JOINT rThumb1
              {
                OFFSET -1.2192 -0.487915 3.41376
                CHANNELS 3 Zrotation Xrotation Yrotation
                JOINT rThumb2
                {
                  OFFSET -3.37035 -0.52449 3.41376
                  CHANNELS 3 Zrotation Xrotation Yrotation
                  End Site
                  {
                    OFFSET -1.78271 -1.18214 1.43049
                  }
                }
              }
              JOINT rIndex1
              {
                OFFSET -7.75947 0.938293 5.60832
                CHANNELS 3 Zrotation Xrotation Yrotation
                JOINT rIndex2
                {
                  OFFSET -2.54057 -0.884171 1.56538
                  CHANNELS 3 Zrotation Xrotation Yrotation
                  End Site
                  {
                    OFFSET -1.62519 -0.234802 1.16502
                  }
                }
              }
              JOINT rMid1
              {
                OFFSET -8.24714 1.18213 3.41376
                CHANNELS 3 Zrotation Xrotation Yrotation
                JOINT rMid2
                {
                  OFFSET -3.10165 -0.590103 1.0647
                  CHANNELS 3 Zrotation Xrotation Yrotation
                  End Site
                  {
                    OFFSET -2.48547 -0.328903 0.83742
                  }
                }
              }
              JOINT rRing1
              {
                OFFSET -8.82822 0.546677 1.51678
                CHANNELS 3 Zrotation Xrotation Yrotation
                JOINT rRing2
                {
                  OFFSET -2.60934 -0.819778 -0.0198488
                  CHANNELS 3 Zrotation Xrotation Yrotation
                  End Site
                  {
                    OFFSET -2.33842 -0.294052 0.168128
                  }
                }
              }
              JOINT rPinky1
              {
                OFFSET -8.27202 -0.0477905 -0.4584
                CHANNELS 3 Zrotation Xrotation Yrotation
                JOINT rPinky2
                {
                  OFFSET -1.82734 -0.647385 -0.700984
                  CHANNELS 3 Zrotation Xrotation Yrotation
                  End Site
                  {
                    OFFSET -1.69225 -0.51767 -0.607171
                  }
                }
              }
            }
          }
        }
      }
      JOINT lCollar
      {
        OFFSET 2.68224 19.2634 -4.8768
        CHANNELS 3 Zrotation Xrotation Yrotation
        JOINT lShldr
        {
          OFFSET 8.77824 -1.95073 1.46304
          CHANNELS 3 Zrotation Xrotation Yrotation
          JOINT lForeArm
          {
            OFFSET 28.1742 -1.7115 0.48768
            CHANNELS 3 Zrotation Xrotation Yrotation
            JOINT lHand
            {
              OFFSET 22.5879 0.773209 7.07136
              CHANNELS 3 Zrotation Xrotation Yrotation
              JOINT lThumb1
              {
                OFFSET 1.2192 -0.487915 3.41376
                CHANNELS 3 Zrotation Xrotation Yrotation
                JOINT lThumb2
                {
                  OFFSET 3.37035 -0.52449 3.41376
                  CHANNELS 3 Zrotation Xrotation Yrotation
                  End Site
                  {
                    OFFSET 1.78271 -1.18214 1.43049
                  }
                }
              }
              JOINT lIndex1
              {
                OFFSET 7.75947 0.938293 5.60832
                CHANNELS 3 Zrotation Xrotation Yrotation
                JOINT lIndex2
                {
                  OFFSET 2.54057 -0.884171 1.56538
                  CHANNELS 3 Zrotation Xrotation Yrotation
                  End Site
                  {
                    OFFSET 1.62519 -0.234802 1.16502
                  }
                }
              }
              JOINT lMid1
              {
                OFFSET 8.24714 1.18213 3.41376
                CHANNELS 3 Zrotation Xrotation Yrotation
                JOINT lMid2
                {
                  OFFSET 3.10165 -0.590103 1.0647
                  CHANNELS 3 Zrotation Xrotation Yrotation
                  End Site
                  {
                    OFFSET 2.48547 -0.328903 0.83742
                  }
                }
              }
              JOINT lRing1
              {
                OFFSET 8.82822 0.546677 1.51678
                CHANNELS 3 Zrotation Xrotation Yrotation
                JOINT lRing2
                {
                  OFFSET 2.60934 -0.819778 -0.0198488
                  CHANNELS 3 Zrotation Xrotation Yrotation
                  End Site
                  {
                    OFFSET 2.33842 -0.294052 0.168128
                  }
                }
              }
              JOINT lPinky1
              {
                OFFSET 8.27202 -0.0477905 -0.4584
                CHANNELS 3 Zrotation Xrotation Yrotation
                JOINT lPinky2
                {
                  OFFSET 1.82734 -0.647385 -0.700984
                  CHANNELS 3 Zrotation Xrotation Yrotation
                  End Site
                  {
                    OFFSET 1.69225 -0.51767 -0.607171
                  }
                }
              }
            }
          }
        }
      }
    }
  }
  JOINT rButtock
  {
    OFFSET -8.77824 4.35084 1.2192
    CHANNELS 3 Zrotation Xrotation Yrotation
    JOINT rThigh
    {
      OFFSET 0 -1.70687 -2.19456
      CHANNELS 3 Zrotation Xrotation Yrotation
      JOINT rShin
      {
        OFFSET 0 -36.8199 0.73152
        CHANNELS 3 Zrotation Xrotation Yrotation
        JOINT rFoot
        {
          OFFSET 0.73152 -45.1104 -5.12064
          CHANNELS 3 Zrotation Xrotation Yrotation
          End Site
          {
            OFFSET -1.1221 -3.69964 12.103
          }
        }
      }
    }
  }
  JOINT lButtock
  {
    OFFSET 8.77824 4.35084 1.2192
    CHANNELS 3 Zrotation Xrotation Yrotation
    JOINT lThigh
    {
      OFFSET 0 -1.70687 -2.19456
      CHANNELS 3 Zrotation Xrotation Yrotation
      JOINT lShin
      {
        OFFSET 0 -36.8199 0.73152
        CHANNELS 3 Zrotation Xrotation Yrotation
        JOINT lFoot
        {
          OFFSET -0.73152 -45.1104 -5.12064
          CHANNELS 3 Zrotation Xrotation Yrotation
          End Site
          {
            OFFSET 1.1221 -3.69964 12.103
          }
        }
      }
    }
  }
}
MOTION
Frames:	7
Frame Time:	0.03333
0.0 0.0 0.0 0.0 0.0 0.0 0.0 0.0 0.0 0.0 0.0 0.0 0.0 0.0 0.0 0.0 0.0 0.0 0.0 0.0 0.0 0.0 0.0 0.0 0.0 0.0 0.0 0.0 0.0 0.0 0.0 0.0 0.0 0.0 0.0 0.0 0.0 0.0 0.0 0.0 0.0 0.0 0.0 0.0 0.0 0.0 0.0 0.0 0.0 0.0 0.0 0.0 0.0 0.0 0.0 0.0 0.0 0.0 0.0 0.0 0.0 0.0 0.0 0.0 0.0 0.0 0.0 0.0 0.0 0.0 0.0 0.0 0.0 0.0 0.0 0.0 0.0 0.0 0.0 0.0 0.0 0.0 0.0 0.0 0.0 0.0 0.0 0.0 0.0 0.0 0.0 0.0 0.0 0.0 0.0 0.0 0.0 0.0 0.0 0.0 0.0 0.0 0.0 0.0 0.0 0.0 0.0 0.0 0.0 0.0 0.0 0.0 0.0 0.0 0.0 0.0 0.0 0.0 0.0 0.0 0.0 0.0 0.0 0.0 0.0 0.0 0.0 0.0 0.0 0.0 0.0 0.0
0.039 61.81379999999999 0.1582 -179.977358 66.075557 179.188761 0.039378 3.945499 -6.076913 -4.81778 6.590755 26.791844 10.335855 -13.406262 91.267265 -15.659694 -31.144766 -28.15961 -24.184769 15.024662 -63.226631 -93.758104 3.575647 3.818047 9.601143 66.026341 67.663543 5.26429 16.092291 13.501295 -171.178689 -0.080869 -18.247384 -25.637837 66.353533 -63.574951 6.579974 -10.663201 42.101169 -5.83579 44.507253 -179.798101 122.829497 13.814769 -90.440819 19.385134 -50.901549 64.485675 -94.394643 24.709348 -116.681525 -30.014354 70.209482 42.417707 -92.084732 18.265107 -92.636656 17.925665 23.136459 -9.103548 41.999948 9.82038 -65.601655 11.4602 59.854684 16.837853 83.434389 -17.499504 -159.81181 -0.979762 18.164209 -12.661093 2.282322 14.238265 -167.29255 -117.423063 -61.045497 -67.576867 91.639513 27.943874 -37.264703 -16.591423 -40.930562 15.72326 171.43431 9.116891 -94.004588 -109.256882 -66.158081 -84.821699 -159.270208 0.833662 -113.09266 -174.618556 -3.426068 -100.619757 -77.567162 -17.088998 82.539674 -174.873514 48.575999 158.786216 82.797894 48.645605 82.231095 3.096027 9.779349 -6.388965 1.96811 -50.608637 -0.0 -0.561099 52.642218 0.439237 -8.395383 -0.877803 -82.006567 51.802033 -52.59527 -122.961531 -5.927977 -48.845639 -7.851803 -0.383223 51.021121 0.293122 5.999248 -1.309526 77.7674 -74.033791 7.024425 88.528758
-0.6114999999999999 59.985200000000006 0.0409 -10.681933 -2.893908 2.406078 1.620845 17.32408 8.94705 3.008567 -9.402163 2.639482 -4.032436 18.655498 -54.942738 29.929765 -10.203541 58.47028 15.957546 1.109058 7.900331 -9.377087 -2.568501 30.576279 -6.436722 34.875578 4.696049 -108.60245 -5.129268 163.02457 164.77487 -1.016034 -92.044115 -12.954326 20.41583 -3.546066 -171.54175 -0.21199 104.028701 -7.949017 -77.413878 -16.961403 -129.165618 -68.964617 179.127462 -138.833025 -57.599215 127.819739 -166.034437 -7.848946 141.144216 -170.531114 -5.843457 138.258412 -142.648278 -5.99896 -175.907144 21.31586 -26.768926 -11.592262 54.289907 77.712068 1.926027 -137.241934 -25.098454 -106.496259 82.423308 66.891349 -82.869473 80.919616 29.731514 -71.98226 -6.542772 -5.312832 79.469106 -163.013105 -18.618813 -139.547458 -3.705628 5.313174 4.669681 128.480066 -10.037228 -81.697834 158.066389 -13.361683 -111.215243 -8.433633 10.246376 -5.669294 36.318785 51.890071 -29.217743 2.356791 -14.13451 -1.801759 79.518713 -73.302186 78.682799 79.781396 -54.482793 98.837072 77.621522 -70.078735 68.655557 -5.778306 83.34007 -21.057807 1.845472 -0.642427 -2.353415 -17.951203 -12.124177 -98.237093 -53.697627 -0.644273 90.775682 -73.714942 5.664266 -5.205366 8.715093 -6.507367 -0.0 41.18073 -48.226739 19.17271 -41.01976 70.988662 153.58491 -81.798901 -54.90723 179.68866
-1.4777 58.665 -0.6987 -12.669244 -2.080649 1.110038 2.835213 17.286156 -180.0 -3.657755 6.805439 -164.253836 -5.471458 23.193121 -95.59011 33.649242 12.153844 89.79105 13.060369 0.837211 7.304069 -4.882852 -1.200386 27.607968 -0.968065 -0.427068 -5.809305 -98.506118 -26.490455 -160.09035 174.252087 13.252224 -89.367419 -3.91688 20.68179 -4.866407 -78.603255 39.576944 25.889885 16.480249 -31.124431 42.115795 -164.495896 -27.222351 139.861105 -174.59288 82.039142 156.595018 -8.497464 -16.28217 5.997897 -152.315147 0.416177 170.57962 -79.464837 -63.353228 -97.090605 34.932292 2.924925 9.661439 -43.482043 -39.847466 -14.273955 49.063041 29.389144 -17.765686 149.895955 19.699174 -150.015343 49.970496 9.592717 -12.755894 97.000288 -21.278176 121.024378 -28.17382 -42.577551 -16.658257 -177.292512 -21.18071 -95.185318 -102.98063 -75.675069 -90.532531 23.895741 32.136467 -24.064828 4.326858 -17.078638 25.957248 179.338925 -51.422209 -130.612295 58.673836 37.398933 -57.199615 70.839686 82.557759 -82.624913 75.096511 64.339263 -69.145453 122.203829 -21.24894 127.844195 138.728782 10.361809 147.026357 -142.892057 65.763954 -27.936713 144.032664 55.158675 30.371971 23.101379 62.511544 98.420288 -168.204828 -1.011673 158.878109 -149.832884 68.534296 -23.234326 -161.459806 -0.820465 180.0 -27.635763 -76.825113 -60.875059 -72.223368 -17.901512 -174.389591
-1.781 60.9851 -2.1845 -10.106092 2.280609 2.237659 3.399669 17.8087 -10.99204 2.779048 -6.622425 21.573306 11.255156 18.921738 97.243446 -31.248884 12.513933 -91.478621 3.807849 0.4188 12.548172 26.704924 9.498526 38.582539 -1.407861 -26.705086 -8.861569 -83.962989 -39.423696 -129.383327 -171.848596 23.540322 -96.112844 -0.239934 3.314727 -4.425039 -4.673959 -6.248105 0.242148 -126.802859 -45.184439 108.33322 95.774074 -72.755045 64.604073 -141.059459 80.238717 135.292962 -4.865919 -1.061368 4.81225 -170.15552 -29.897849 156.804576 -76.113162 -69.083441 -91.249147 14.563911 -0.025822 -4.510885 -83.508798 -45.534712 -58.461774 91.11526 73.161369 -25.954203 0.016612 -0.460399 -0.138049 -120.626217 -65.670114 -48.798231 58.509416 74.179501 -112.472378 4.749208 25.033415 -1.765291 1.962214 1.763251 4.132184 37.505234 30.260193 -28.79567 -168.566776 -68.505998 -99.897251 61.049048 34.296183 -62.036974 156.249327 -8.463669 -133.804113 154.729627 -8.493297 -132.722305 -2.609742 14.220025 1.707989 -12.120175 27.419911 -19.161071 169.815315 32.419779 116.276215 160.162153 7.795837 99.581949 131.226114 68.553252 23.737675 -137.703953 49.856103 -34.269645 -32.752829 63.88005 -89.191029 25.515769 -47.407059 111.015732 125.227101 69.782757 46.630011 -139.130822 3.963431 89.117274 53.195994 -17.031785 -62.341455 -82.758477 12.914935 14.658033
-2.2167 63.0996 -3.8127 -6.904523 6.916531 3.218522 1.098801 11.267945 174.393857 -1.726707 0.632799 -168.229662 -6.144915 10.557607 18.005192 0.418577 -27.59872 -7.88627 -3.999311 -0.399096 11.39293 53.110852 -0.33465 -0.669575 0.731801 -18.598954 -1.31318 73.649881 38.836809 -29.94066 147.493127 24.916129 74.558606 -169.463867 28.887582 137.300241 -172.622372 -9.110612 88.165445 -156.861779 -1.0228 89.638167 -157.835082 -13.721547 110.50554 -93.428661 58.886712 52.126981 -154.516508 -8.767656 145.106562 57.348455 -84.645828 17.53233 -138.723984 -9.185044 -171.355325 30.26365 -3.11379 -19.731573 9.604117 43.15183 8.527803 -170.820711 4.086245 -151.0135 -1.317364 0.133743 5.827382 62.7257 51.87038 -133.121125 -17.655003 69.011753 101.881939 -168.736562 -25.651338 -143.597096 -4.969667 -0.150729 2.983448 -7.752831 -38.607088 27.365266 -48.111538 -62.845809 -5.347743 -122.264089 -58.742875 -60.413764 25.908369 51.932493 -36.171076 79.993102 70.416543 -60.60312 138.696054 -1.701541 -177.412086 32.917439 70.351092 -47.609058 -5.295708 57.122615 15.170848 163.005686 -15.424564 -177.193899 138.584152 75.497952 30.983849 -161.173734 58.540172 53.771203 71.093958 28.203641 93.228866 -109.126737 39.139035 -159.754542 94.74356 48.875857 54.153349 -120.143666 -8.169722 109.122473 39.666097 -43.072674 -17.968618 8.700441 42.895269 -90.633351
-2.7241 63.7093 -5.5408 -5.080142 8.329255 3.606844 0.51576 16.325675 -0.0 -0.289622 -6.824421 7.488907 -19.048807 25.396015 -94.329024 41.492064 23.596347 97.64078 -1.85841 -0.114766 7.06698 0.761713 -0.266723 -38.596164 -145.827553 29.879681 147.816075 -88.8639 35.802182 66.740492 -109.315976 23.470742 -144.698326 18.601021 -53.865391 3.967714 97.487719 -51.767894 41.848755 -65.66649 20.216623 24.39909 11.122123 -8.03423 10.814411 -151.510105 -12.315896 121.165231 -151.591061 -7.026006 151.379868 -3.751974 -79.219894 -40.131926 4.856269 -1.326315 -4.32777 -92.539359 59.337478 84.186771 -6.273109 -2.044121 -1.460702 -39.376571 -65.240885 -32.036703 -0.992991 -0.459067 4.853594 -91.533312 -45.445009 -24.929488 -34.713422 49.728518 -33.217588 19.111465 43.987944 -10.426664 -7.535061 7.367768 -1.074148 12.857227 -6.396093 14.775729 87.377865 43.7245 -77.867534 -8.354728 0.429334 6.594008 -7.723097 32.449893 -6.989804 9.516571 -14.559452 -0.627643 -4.86265 5.224604 -0.089595 -3.687718 21.847113 6.059326 119.628267 -41.924347 80.931623 161.943336 20.141309 96.503392 -121.664802 77.257948 -41.764021 142.956577 55.401409 -51.532696 -63.052753 -1.271119 89.182801 -159.218218 -11.139913 37.425857 82.899646 33.815845 52.478299 -104.897946 -13.382366 -46.616373 -6.09337 48.634797 132.161987 -144.251413 36.970214 95.302722
